<svg width="30" height="23" viewBox="0 0 30 23" fill="none" xmlns="http://www.w3.org/2000/svg">
<g clip-path="url(#clip0_2164_1678)">
<path fill-rule="evenodd" clip-rule="evenodd" d="M0 0H30V23H0V0Z" fill="#229E45"/>
<path fill-rule="evenodd" clip-rule="evenodd" d="M15.0656 20.8916L29.1984 11.5143L14.9812 2.10828L0.801514 11.5335L15.0656 20.8916Z" fill="#F8E509"/>
<path fill-rule="evenodd" clip-rule="evenodd" d="M21.225 11.5C21.225 14.8685 18.5484 17.5998 15.2438 17.5998C14.0628 17.5979 12.909 17.2381 11.928 16.566C10.9471 15.8938 10.1831 14.9395 9.7327 13.8236C9.28228 12.7077 9.16563 11.4803 9.39749 10.2966C9.62935 9.11296 10.1993 8.02613 11.0353 7.17354C11.8714 6.32095 12.9359 5.74087 14.0944 5.50664C15.2529 5.27241 16.4533 5.39455 17.5439 5.8576C18.6345 6.32066 19.5663 7.10385 20.2215 8.10816C20.8767 9.11248 21.2259 10.2928 21.225 11.5Z" fill="#2B49A3"/>
<path fill-rule="evenodd" clip-rule="evenodd" d="M13.2797 15.1561L13.0922 15.0459L12.9047 15.1417L12.9469 14.9261L12.7969 14.7632L13.0079 14.7392L13.111 14.5475L13.2 14.7488L13.4063 14.7871L13.2516 14.9309M17.2829 16.1911L17.1 16.0809L16.9125 16.1767L16.95 15.9611L16.8047 15.8029L17.0157 15.779L17.1141 15.5825L17.2079 15.7838L17.4141 15.8221L17.2547 15.9707M15.5579 14.5332L15.3985 14.4373L15.2344 14.5236L15.2719 14.3367L15.1407 14.1977L15.3282 14.1786L15.4125 14.0061L15.4875 14.1834L15.6704 14.2169L15.5297 14.3463M19.6079 13.939L19.4485 13.8432L19.2844 13.9294L19.3219 13.7425L19.1954 13.6084L19.3782 13.5892L19.4626 13.4215L19.5375 13.594L19.7157 13.6275L19.5797 13.7521M15.4875 12.6979L15.3 12.5925L15.1125 12.6884L15.1501 12.4679L15.0047 12.3098L15.2157 12.2859L15.3141 12.0894L15.4079 12.2907L15.6141 12.329L15.4547 12.4823M10.5516 10.8052L10.3641 10.6998L10.1766 10.7957L10.2235 10.5752L10.0688 10.4171L10.2844 10.3932L10.3782 10.1967L10.4719 10.3979L10.6782 10.4363L10.5235 10.5848M11.1469 13.3257L10.9594 13.2154L10.7719 13.3113L10.8141 13.0957L10.6641 12.9375L10.875 12.9088L10.9735 12.7171L11.0672 12.9184L11.2735 12.9567L11.1188 13.1052M17.3063 9.88045L17.1375 9.78461L16.9688 9.87086L17.0063 9.6792L16.875 9.53545L17.0625 9.51149L17.1516 9.33899L17.2313 9.52107L17.4188 9.55461L17.2782 9.68399M16.9641 11.5192L16.8376 11.4425L16.7016 11.5096L16.7297 11.3563L16.6266 11.2461L16.7766 11.2269L16.8469 11.0927L16.9079 11.2365L17.0485 11.2604L16.9454 11.3659M10.2797 13.7809L10.1532 13.709L10.0266 13.7713L10.0547 13.6275L9.9563 13.5221L10.0969 13.5029L10.1625 13.3736L10.2235 13.5077L10.3641 13.5365L10.2563 13.6323M19.6407 14.3654L19.5375 14.3127L19.4344 14.3607L19.4579 14.2504L19.3782 14.1738L19.4907 14.1594L19.5469 14.0636L19.5938 14.1594L19.711 14.1834L19.6219 14.2552" fill="#FFFFEF"/>
<path fill-rule="evenodd" clip-rule="evenodd" d="M10.2797 13.7808L10.1532 13.709L10.0266 13.7712L10.0547 13.6275L9.9563 13.5221L10.0969 13.5029L10.1625 13.3735L10.2235 13.5077L10.3641 13.5365L10.2563 13.6323" fill="#FFFFEF"/>
<path fill-rule="evenodd" clip-rule="evenodd" d="M10.2797 13.7809L10.1532 13.709L10.0266 13.7713L10.0547 13.6275L9.9563 13.5221L10.0969 13.5029L10.1625 13.3736L10.2235 13.5077L10.3641 13.5365L10.2563 13.6323M12.2391 13.7761L12.1172 13.709L11.9907 13.7713L12.0188 13.6275L11.9204 13.5221L12.061 13.5029L12.1266 13.3736L12.1875 13.5077L12.3282 13.5317L12.2204 13.6323M11.9954 14.4469L11.8735 14.375L11.7469 14.4421L11.775 14.2984L11.6766 14.1882L11.8172 14.169L11.8829 14.0396L11.9438 14.1738L12.0844 14.2025L11.9766 14.2984M16.0735 13.2346L15.9516 13.1579L15.8204 13.225L15.8485 13.0813L15.7547 12.9711L15.8954 12.9567L15.961 12.8273L16.0172 12.9615L16.1579 12.9854L16.0547 13.0861M14.8782 13.2298L14.7516 13.1579L14.625 13.225L14.6532 13.0813L14.5594 12.9711L14.7 12.9567L14.7657 12.8225L14.8219 12.9615L14.9625 12.9854L14.8594 13.0861M11.6344 12.8082L11.5547 12.7602L11.475 12.7986L11.4938 12.7075L11.4329 12.6404L11.5219 12.6309L11.5594 12.5494L11.5969 12.6357L11.686 12.65L11.6204 12.7123M19.486 14.8877L19.3641 14.8159L19.2375 14.8829L19.2657 14.7392L19.1672 14.629L19.3079 14.6098L19.3735 14.4804L19.4344 14.6146L19.575 14.6434L19.4672 14.7392M18.4922 15.0267L18.3891 14.9596L18.2813 15.0171L18.3047 14.8925L18.225 14.8063L18.3422 14.7919L18.3985 14.6817L18.4454 14.7967L18.5625 14.8159L18.4735 14.9021M18.961 15.0123L18.8672 14.9548L18.7688 15.0027L18.7875 14.8925L18.7125 14.8111L18.8204 14.7967L18.8719 14.7009L18.9188 14.7967L19.0266 14.8207L18.9469 14.8973M20.311 13.8048L20.2172 13.7569L20.1235 13.8048L20.1469 13.6946L20.0719 13.6132L20.1797 13.5988L20.2266 13.5029L20.2735 13.6036L20.3719 13.6227L20.2969 13.6994M18.4782 15.7023L18.361 15.6352L18.2344 15.6927L18.2625 15.5586L18.1688 15.4627L18.3094 15.4484L18.3704 15.3286L18.4266 15.4532L18.5672 15.4771L18.4594 15.5682M18.4875 16.2486L18.375 16.1815L18.2625 16.2438L18.2907 16.1096L18.2016 16.0138L18.3282 15.9946L18.3844 15.8748L18.436 15.9994L18.5625 16.0234L18.4688 16.1192M17.5782 15.0123L17.4891 14.9548L17.3954 15.0027L17.4141 14.8973L17.3438 14.8159L17.4469 14.8063L17.4938 14.7104L17.5407 14.8063L17.6438 14.8254L17.5688 14.9021M16.7344 15.0123L16.6407 14.9548L16.5469 15.0027L16.5704 14.8973L16.4954 14.8159L16.6032 14.8063L16.65 14.7104L16.6969 14.8063L16.7954 14.8254L16.7204 14.9021M15.2954 13.7234L15.2016 13.6707L15.1079 13.7186L15.1313 13.6084L15.0563 13.5317L15.1594 13.5173L15.2063 13.4215L15.2532 13.5173L15.3563 13.5413L15.2813 13.6132M15.4547 16.3444L15.3797 16.3013L15.2954 16.3444L15.3141 16.2486L15.2532 16.1815L15.3422 16.1719L15.3844 16.0904L15.4219 16.1767L15.511 16.1911L15.4454 16.2534M13.2797 12.1038L13.0922 11.9936L12.9047 12.0894L12.9469 11.8738L12.7969 11.7157L13.0079 11.6869L13.111 11.4952L13.2 11.6965L13.4063 11.7348L13.2516 11.8834" fill="#FFFFEF"/>
<path fill-rule="evenodd" clip-rule="evenodd" d="M20.8313 13.6945C20.9473 13.3865 21.0382 13.0692 21.1031 12.7458C17.925 9.89475 14.3859 8.43329 9.91406 8.73516C9.75199 9.05602 9.61863 9.39121 9.51562 9.73662C14.8125 9.21912 18.7031 11.615 20.8313 13.6945Z" fill="white"/>
<path d="M19.4062 12.0941L19.514 12.1564C19.4963 12.1884 19.4912 12.2262 19.4999 12.2619C19.5109 12.2965 19.5343 12.3256 19.5655 12.3433C19.5968 12.3689 19.628 12.38 19.6593 12.3768C19.6874 12.3768 19.7077 12.3657 19.7202 12.3433L19.7296 12.3002L19.7062 12.2523C19.6968 12.2363 19.6733 12.2075 19.6358 12.166C19.5977 12.1251 19.5689 12.076 19.5515 12.0223C19.5425 11.9815 19.5467 11.9388 19.5637 11.9007C19.5806 11.8627 19.6092 11.8313 19.6452 11.8114C19.6794 11.7975 19.7169 11.7941 19.753 11.8019C19.7971 11.8122 19.8386 11.8318 19.8749 11.8594C19.9405 11.9073 19.9812 11.9584 19.9968 12.0127C20.0036 12.0396 20.0046 12.0676 19.9997 12.0949C19.9949 12.1222 19.9843 12.1481 19.9687 12.1708L19.8562 12.0989C19.8718 12.067 19.8749 12.0398 19.8655 12.0175C19.8593 11.9919 19.8405 11.9696 19.8093 11.9504C19.7855 11.93 19.7559 11.9182 19.7249 11.9169C19.7164 11.9166 19.708 11.9186 19.7006 11.9229C19.6931 11.9271 19.687 11.9333 19.6827 11.9408C19.6733 11.9536 19.6718 11.9696 19.678 11.9887C19.6843 12.0143 19.7093 12.0494 19.753 12.0941C19.7968 12.1389 19.828 12.1788 19.8468 12.2139C19.863 12.2455 19.8702 12.2811 19.8677 12.3166C19.8653 12.3522 19.8531 12.3863 19.8327 12.4152C19.811 12.448 19.7799 12.4731 19.7437 12.4871C19.7085 12.5036 19.6692 12.5086 19.6312 12.5014C19.5905 12.4919 19.5468 12.4711 19.4999 12.4391C19.4312 12.3912 19.389 12.3385 19.3733 12.281C19.3647 12.2488 19.3628 12.2152 19.3676 12.1821C19.3724 12.1491 19.384 12.1175 19.4015 12.0894L19.4062 12.0941ZM18.8624 11.73L18.9796 11.7923C18.9635 11.8249 18.9601 11.8626 18.9702 11.8977C18.9822 11.9306 19.0055 11.9578 19.0358 11.9744C19.0702 11.9999 19.1015 12.0095 19.1296 12.0031C19.1577 12.0031 19.178 11.9903 19.1905 11.9648L19.1999 11.9264C19.1999 11.9105 19.1921 11.8945 19.1765 11.8785L19.1015 11.7923C19.0483 11.7412 19.0171 11.6964 19.0077 11.6581C19.0009 11.6333 18.9991 11.6074 19.0023 11.5819C19.0055 11.5564 19.0137 11.5318 19.0265 11.5096C19.0451 11.4807 19.071 11.4575 19.1015 11.4425C19.1338 11.4278 19.1696 11.4228 19.2046 11.4281C19.2479 11.4356 19.2894 11.4519 19.3265 11.476C19.3983 11.5239 19.4405 11.5734 19.453 11.6246C19.4619 11.6514 19.4648 11.68 19.4616 11.7082C19.4583 11.7363 19.449 11.7634 19.4343 11.7875L19.3171 11.7204C19.3327 11.6884 19.3358 11.6613 19.3265 11.6389C19.314 11.607 19.2937 11.5846 19.2655 11.5719C19.2399 11.5522 19.2085 11.542 19.1765 11.5431C19.1688 11.5436 19.1613 11.5461 19.1548 11.5503C19.1482 11.5545 19.1428 11.5602 19.139 11.5671C19.1296 11.5798 19.128 11.5958 19.1343 11.615C19.1437 11.6405 19.1702 11.6757 19.214 11.7204C19.2608 11.7683 19.2921 11.8066 19.3077 11.8354C19.326 11.8656 19.3356 11.9005 19.3356 11.936C19.3356 11.9716 19.326 12.0064 19.3077 12.0366C19.288 12.0705 19.2585 12.0972 19.2233 12.1133C19.1882 12.1299 19.1489 12.1349 19.1108 12.1277C19.0626 12.1193 19.0164 12.1014 18.9749 12.075C18.9143 12.042 18.8676 11.9874 18.8437 11.9216C18.8336 11.8901 18.8301 11.8568 18.8334 11.8238C18.8366 11.7908 18.8465 11.7589 18.8624 11.73ZM18.1968 11.5479L18.539 10.9729L18.9515 11.2364L18.8952 11.3323L18.5952 11.1406L18.5202 11.27L18.8015 11.4473L18.7405 11.5431L18.4593 11.3658L18.3655 11.5239L18.6796 11.7156L18.6233 11.8114L18.1968 11.5479ZM17.2265 10.7333L17.278 10.6375L17.5312 10.7669L17.414 11.0064C17.3765 11.016 17.3296 11.0192 17.2733 11.016C17.2192 11.0104 17.1667 10.9941 17.1187 10.9681C17.0623 10.9393 17.0139 10.8965 16.978 10.8435C16.9458 10.7939 16.9294 10.7353 16.9312 10.6758C16.9341 10.614 16.9501 10.5535 16.978 10.4985C17.0062 10.4409 17.0481 10.3915 17.0999 10.3548C17.1492 10.3191 17.2083 10.3007 17.2687 10.3021C17.3124 10.3021 17.3624 10.318 17.4187 10.35C17.4937 10.3851 17.5421 10.4298 17.564 10.4841C17.5883 10.5365 17.5933 10.596 17.578 10.6519L17.4515 10.6135C17.4592 10.5814 17.4559 10.5476 17.4421 10.5177C17.4296 10.4889 17.4046 10.4666 17.3671 10.4506C17.345 10.4384 17.3208 10.4308 17.2959 10.4284C17.2709 10.4259 17.2457 10.4286 17.2218 10.4362C17.1749 10.4522 17.1343 10.4937 17.0999 10.5608C17.0655 10.6279 17.0546 10.6886 17.0671 10.7429C17.0744 10.7675 17.0864 10.7904 17.1025 10.8101C17.1186 10.8299 17.1385 10.8461 17.1608 10.8579C17.1858 10.8739 17.2124 10.8819 17.2405 10.8819H17.3249L17.3624 10.8052L17.2265 10.7333ZM12.9983 9.66477L13.0921 8.99393L13.289 9.02748L13.3405 9.49706L13.5233 9.06581L13.7202 9.09456L13.6265 9.75581L13.4999 9.73664L13.5796 9.21435L13.3733 9.71748L13.2468 9.69831L13.1952 9.15685L13.1202 9.68393L12.9983 9.66477ZM12.3374 9.58331L12.3983 8.91248L12.8812 8.96039L12.8718 9.07539L12.5202 9.04185L12.5062 9.1856L12.8343 9.21914L12.8202 9.33414L12.4921 9.3006L12.478 9.48268L12.8437 9.51623L12.8343 9.63123L12.3374 9.58331Z" fill="#309E3A"/>
<path d="M10.1483 9.16641C10.1483 9.09613 10.1593 9.03863 10.1811 8.99391C10.1978 8.95999 10.22 8.9292 10.2468 8.90287C10.2704 8.87764 10.2992 8.85801 10.3311 8.84537C10.378 8.8294 10.4249 8.82141 10.4718 8.82141C10.5686 8.82461 10.6468 8.85655 10.7061 8.91724C10.7361 8.95328 10.7583 8.99539 10.7712 9.04081C10.7841 9.08623 10.7875 9.13394 10.7811 9.18079C10.7811 9.2862 10.7499 9.37086 10.6874 9.43474C10.6227 9.49214 10.5385 9.52137 10.453 9.5162C10.3688 9.51498 10.2882 9.48066 10.228 9.42037C10.1984 9.38586 10.1761 9.34552 10.1624 9.30183C10.1487 9.25815 10.1439 9.21206 10.1483 9.16641Z" fill="#309E3A"/>
<path d="M10.2842 9.1664C10.2842 9.23987 10.2998 9.29737 10.3311 9.3389C10.3623 9.38043 10.4061 9.40119 10.4623 9.40119C10.5111 9.40175 10.5582 9.38284 10.5936 9.34848C10.6248 9.31015 10.642 9.25105 10.6451 9.17119C10.6482 9.09453 10.6326 9.03703 10.5982 8.99869C10.5655 8.96195 10.5202 8.93962 10.4717 8.9364C10.4222 8.93712 10.375 8.95779 10.3404 8.9939C10.3061 9.03223 10.2873 9.08973 10.2842 9.1664Z" fill="#F7FFFF"/>
<path d="M10.9219 9.51141L10.9312 8.84058H11.2125C11.2812 8.84058 11.3312 8.84856 11.3625 8.86453C11.3937 8.87412 11.4187 8.89488 11.4375 8.92683C11.4656 8.97474 11.4656 8.99391 11.4656 9.03703C11.4651 9.08296 11.4485 9.12717 11.4188 9.16162C11.3832 9.19338 11.3391 9.21342 11.2922 9.21912L11.3625 9.27662C11.3812 9.29578 11.4047 9.33252 11.4328 9.38683L11.5125 9.52099H11.3531L11.2594 9.36766L11.1938 9.27183L11.1516 9.24308L11.0859 9.23349H11.0578V9.51141H10.9219Z" fill="#309E3A"/>
<path d="M11.0625 9.12807H11.1562C11.2219 9.12807 11.2625 9.12487 11.2781 9.11848C11.2938 9.11529 11.3062 9.1073 11.3156 9.09453C11.3281 9.07536 11.3328 9.05939 11.3297 9.04661C11.3297 9.01786 11.3234 8.99869 11.3109 8.98911C11.3016 8.97633 11.2859 8.96675 11.2641 8.96036H11.1703L11.0625 8.95557V9.12807Z" fill="white"/>
<path d="M11.672 8.87415L11.9157 8.88852C11.9688 8.88852 12.0095 8.89331 12.0376 8.9029C12.0738 8.91699 12.106 8.94004 12.1313 8.96998C12.1583 9.00348 12.1776 9.0428 12.1876 9.08498C12.2001 9.1297 12.2048 9.18241 12.2017 9.2431C12.2019 9.29203 12.194 9.34064 12.1782 9.38685C12.1595 9.43477 12.1329 9.4731 12.0985 9.50185C12.0712 9.52486 12.0392 9.54124 12.0048 9.54977C11.9735 9.55935 11.9345 9.56255 11.8876 9.55935L11.6392 9.54498L11.672 8.87415Z" fill="#309E3A"/>
<path d="M11.7986 8.9939L11.7751 9.43952H11.9533C11.9783 9.43952 11.997 9.43154 12.0095 9.41556C12.0251 9.40279 12.0376 9.38202 12.047 9.35327C12.0564 9.32452 12.0626 9.28299 12.0658 9.22869L12.0611 9.1089C12.0548 9.08346 12.0418 9.06026 12.0236 9.04181L11.9673 9.00827L11.8595 8.9939H11.7986Z" fill="white"/>
<path d="M14.8875 10.0721L15.0421 9.42041L15.2484 9.46833L15.3984 9.51624C15.4328 9.53541 15.4578 9.56576 15.4734 9.60728C15.489 9.64881 15.4921 9.69354 15.4828 9.74145C15.4734 9.77979 15.4578 9.81173 15.4359 9.83729C15.4185 9.85808 15.3969 9.87483 15.3727 9.8864C15.3484 9.89797 15.322 9.9041 15.2953 9.90437C15.264 9.90437 15.2171 9.89638 15.1546 9.88041L15.075 9.85645L15.0187 10.1056L14.8875 10.0721Z" fill="#309E3A"/>
<path d="M15.1405 9.56421L15.103 9.74629L15.1733 9.76546C15.2233 9.77824 15.2577 9.78303 15.2765 9.77983C15.2945 9.77662 15.3111 9.76811 15.3245 9.75534C15.3378 9.74257 15.3472 9.7261 15.3515 9.70796C15.3515 9.6856 15.3483 9.66483 15.3421 9.64567C15.3318 9.62619 15.3152 9.61095 15.2952 9.60254L15.2062 9.57858L15.1452 9.56421H15.1405Z" fill="white"/>
<path d="M15.4968 10.259L15.7171 9.62646L15.975 9.7223C16.0437 9.74785 16.0906 9.77022 16.1156 9.78938C16.1406 9.81174 16.1562 9.84049 16.1625 9.87563C16.1718 9.92834 16.1718 9.94751 16.1625 9.98584C16.1437 10.0338 16.1156 10.0689 16.0781 10.0913C16.0406 10.1104 15.9937 10.1152 15.9375 10.1056C15.9562 10.128 15.9718 10.1535 15.9843 10.1823L16.0218 10.3117L16.05 10.4602L15.9046 10.4075L15.8578 10.235L15.825 10.12L15.7968 10.0817C15.7875 10.0689 15.7671 10.0577 15.7359 10.0481L15.7125 10.0385L15.6187 10.3069L15.4968 10.259Z" fill="#309E3A"/>
<path d="M15.75 9.93791L15.8391 9.97145C15.9016 9.99381 15.9407 10.005 15.9563 10.005C15.9719 10.005 15.986 10.0002 15.9985 9.99062C16.0141 9.98103 16.0235 9.96666 16.0266 9.94749C16.036 9.92833 16.036 9.90916 16.0266 9.88999C16.0187 9.87202 16.0056 9.85696 15.9891 9.84687L15.8954 9.81333L15.8016 9.77979L15.7454 9.93791H15.75Z" fill="white"/>
<path d="M16.2656 10.235C16.2817 10.1789 16.3088 10.1267 16.3453 10.0817C16.3693 10.053 16.3978 10.0287 16.4297 10.0098L16.5234 9.97626C16.5703 9.97307 16.6187 9.97946 16.6687 9.99543C16.7522 10.0195 16.823 10.0763 16.8656 10.1536C16.9031 10.2302 16.9062 10.3213 16.875 10.4267C16.8645 10.472 16.8449 10.5145 16.8175 10.5516C16.79 10.5887 16.7554 10.6196 16.7156 10.6423C16.6437 10.6838 16.5625 10.6902 16.4719 10.6615C16.3884 10.6374 16.3176 10.5806 16.275 10.5033C16.2554 10.4617 16.2445 10.4164 16.2429 10.3702C16.2413 10.324 16.249 10.278 16.2656 10.235Z" fill="#309E3A"/>
<path d="M16.3968 10.2733C16.3749 10.3468 16.3749 10.4075 16.3968 10.4554C16.4296 10.5273 16.453 10.5321 16.5046 10.5512C16.5515 10.5672 16.5983 10.5608 16.6452 10.5321C16.689 10.5065 16.7218 10.4554 16.7437 10.3787C16.7687 10.3085 16.7687 10.2494 16.7437 10.2014C16.7226 10.1571 16.6857 10.1228 16.6405 10.1056C16.5936 10.0915 16.5431 10.0966 16.4999 10.12C16.453 10.1455 16.4187 10.1966 16.3968 10.2733Z" fill="white"/>
<path d="M17.5454 11.1694L17.8454 10.5752L18.0938 10.7046C18.1407 10.7275 18.1834 10.7583 18.2204 10.7956C18.2454 10.818 18.2579 10.8483 18.2579 10.8867C18.2579 10.9442 18.2579 10.9585 18.2392 10.9921C18.2204 11.0346 18.187 11.0687 18.1454 11.0879C18.0985 11.1007 18.0501 11.0975 18.0001 11.0783C18.0188 11.1103 18.0313 11.1374 18.0376 11.1598C18.047 11.1885 18.0532 11.2333 18.0563 11.2939L18.0657 11.4473L17.9251 11.3754L17.9063 11.1981L17.8923 11.0783L17.8688 11.0304L17.8126 10.9969L17.7892 10.9825L17.6626 11.2317L17.5454 11.1694Z" fill="#309E3A"/>
<path d="M17.8359 10.8866L17.925 10.9345C17.9812 10.9665 18.0172 10.9824 18.0328 10.9824C18.0484 10.9824 18.0641 10.9792 18.0797 10.9729C18.0922 10.9665 18.1031 10.9537 18.1125 10.9345C18.1219 10.9154 18.125 10.8962 18.1219 10.877L18.0891 10.8291L18.0047 10.7812L17.9109 10.7333L17.8359 10.8866Z" fill="white"/>
<path d="M19.9733 12.3961C20.0038 12.3469 20.0436 12.3045 20.0905 12.2715C20.1222 12.2512 20.1571 12.2366 20.1936 12.2284C20.2277 12.2219 20.2627 12.2219 20.2968 12.2284C20.3436 12.238 20.3874 12.2571 20.428 12.2859C20.5002 12.3345 20.5508 12.4102 20.5686 12.4967C20.5811 12.5798 20.5593 12.6676 20.503 12.7603C20.4803 12.8 20.4499 12.8345 20.4136 12.8617C20.3773 12.8889 20.336 12.9082 20.2921 12.9184C20.2072 12.9343 20.1196 12.9153 20.0483 12.8657C19.9761 12.8171 19.9256 12.7413 19.9077 12.6548C19.8952 12.5686 19.9171 12.4823 19.9733 12.3961Z" fill="#309E3A"/>
<path d="M20.0904 12.4728C20.0467 12.5367 20.0295 12.5942 20.0389 12.6453C20.0479 12.6936 20.0748 12.7365 20.1139 12.7651C20.1607 12.797 20.2076 12.8066 20.2545 12.7938C20.3014 12.7811 20.3467 12.7427 20.3904 12.6788C20.4342 12.6118 20.4514 12.5542 20.442 12.5063C20.4326 12.4584 20.4076 12.4169 20.367 12.3817C20.3014 12.329 20.2732 12.3434 20.2264 12.3578C20.1795 12.3674 20.1326 12.4057 20.0857 12.4728H20.0904Z" fill="white"/>
<path d="M14.147 9.79893L14.2548 9.32935L14.5923 9.4108L14.5782 9.48747L14.3298 9.42997L14.3063 9.53539L14.536 9.5881L14.5173 9.66955L14.2876 9.61205L14.2595 9.74143L14.5173 9.80372L14.4985 9.88039L14.147 9.79893Z" fill="#309E3A"/>
</g>
<defs>
<clipPath id="clip0_2164_1678">
<rect width="30" height="23" rx="2" fill="white"/>
</clipPath>
</defs>
</svg>
