<svg width="249" height="189" viewBox="0 0 249 189" fill="none" xmlns="http://www.w3.org/2000/svg">
<path d="M111.983 0.61264C109.914 1.33047 107.211 3.90623 106.198 6.10196C105.1 8.4666 105.142 12.3936 106.282 14.5471C107.591 17.0384 109.153 18.5585 111.518 19.6564C119.372 23.3722 128.239 15.5605 125.495 7.28428C123.595 1.62605 117.556 -1.37196 111.983 0.61264Z" fill="white" fill-opacity="0.25"/>
<path d="M158.642 22.1477C154.588 23.0766 152.012 23.9634 148.254 25.8213C144.158 27.8481 141.372 29.9172 136.558 34.4353C131.322 39.4179 126.804 41.3603 120.47 41.3603C116.965 41.3603 113.46 40.3891 110.04 38.5312C99.1882 32.5352 93.1499 30.1283 84.2826 28.2281C80.5245 27.4259 78.4977 27.257 70.9815 27.257C63.2542 27.2147 61.523 27.3414 57.4693 28.1859C35.132 32.873 17.1439 46.5963 7.22088 66.4845C4.09619 72.7339 1.98491 78.8988 0.844816 85.0638C-0.253049 90.9331 -0.295275 105.332 0.80259 110.821C4.89847 131.554 17.0172 148.782 35.0053 159.339C42.4792 163.73 50.291 166.517 59.5806 168.121C63.9298 168.839 65.7878 168.924 72.6705 168.755C84.0714 168.417 91.8832 166.601 101.553 162.083C107.338 159.381 109.533 158.747 113.418 158.747C121.061 158.747 126.593 161.745 132.335 168.924C140.358 178.973 150.83 185.307 163.878 188.136C167.931 189.023 178.53 189.108 182.668 188.348C194.787 186.067 205.639 179.438 214.464 168.924C222.867 158.916 226.667 148.782 226.709 136.579C226.709 121.716 221.811 109.512 211.55 98.7871C209.439 96.5491 207.243 94.0156 206.652 93.0866C203.865 88.6107 202.725 82.1924 203.908 77.4632C204.245 76.0697 204.921 73.4095 205.428 71.5516C207.243 64.7533 206.99 56.7726 204.752 49.6365C202.81 43.3871 200.023 38.869 194.956 33.633C189.847 28.3548 183.682 24.7234 176.545 22.7811C172.154 21.5565 162.653 21.2187 158.642 22.1477Z" fill="white" fill-opacity="0.25"/>
<path d="M226.372 59.475C217.8 61.7552 211.888 70.7915 213.451 79.2366C215.477 90.3419 226.329 96.5491 237.055 92.7066C245.331 89.7508 249.976 80.1234 247.315 71.4249C245.88 66.6956 242.713 63.0642 238.026 60.6996C235.661 59.5173 234.859 59.3061 231.481 59.2217C229.37 59.1795 227.089 59.3061 226.372 59.475Z" fill="white" fill-opacity="0.25"/>
<path d="M108.731 171.88C102.608 175.511 105.733 184.758 112.827 183.956C118.781 183.28 120.723 175.764 115.867 172.133C114.136 170.824 110.673 170.739 108.731 171.88Z" fill="white" fill-opacity="0.25"/>
</svg>
