<svg width="30" height="23" viewBox="0 0 30 23" fill="none" xmlns="http://www.w3.org/2000/svg">
<g clip-path="url(#clip0_2164_1713)">
<path d="M0 0H30V23H0V0Z" fill="#012169"/>
<path d="M3.51562 0L14.9531 8.67292L26.3438 0H30V2.97083L18.75 11.5479L30 20.0771V23H26.25L15 14.4229L3.79688 23H0V20.125L11.2031 11.5958L0 3.06667V0H3.51562Z" fill="white"/>
<path d="M19.875 13.4646L30 21.0833V23L17.2969 13.4646H19.875ZM11.25 14.4229L11.5312 16.1L2.53125 23H0L11.25 14.4229ZM30 0V0.14375L18.3281 9.15208L18.4219 7.04375L27.6562 0H30ZM0 0L11.2031 8.43333H8.39062L0 2.0125V0Z" fill="#C8102E"/>
<path d="M11.2969 0V23H18.7969V0H11.2969ZM0 7.66667V15.3333H30V7.66667H0Z" fill="white"/>
<path d="M0 9.24792V13.8479H30V9.24792H0ZM12.7969 0V23H17.2969V0H12.7969Z" fill="#C8102E"/>
</g>
<defs>
<clipPath id="clip0_2164_1713">
<rect width="30" height="23" rx="2" fill="white"/>
</clipPath>
</defs>
</svg>
